<svg width="128" height="128" viewBox="0 0 128 128" fill="none" xmlns="http://www.w3.org/2000/svg">
  <!-- 书签主体 -->
  <rect x="30" y="16" width="68" height="96" rx="4" ry="4" fill="url(#bookmarkGradient)" stroke="#2D3748" stroke-width="2"/>
  
  <!-- 书签底部的切角 -->
  <path d="M30 96 L64 76 L98 96 L98 112 L30 112 Z" fill="url(#bookmarkGradient)" stroke="#2D3748" stroke-width="2"/>
  
  <!-- 主要星星图标 -->
  <path d="M64 30 L68 42 L81 42 L71 50 L75 62 L64 54 L53 62 L57 50 L47 42 L60 42 Z" fill="url(#starGradient)" stroke="#1A202C" stroke-width="1"/>
  
  <!-- 小星星装饰 -->
  <path d="M45 70 L46.5 73 L50 73 L47.25 75 L48.75 78 L45 76 L41.25 78 L42.75 75 L40 73 L43.5 73 Z" fill="url(#starGradient)"/>
  <path d="M83 70 L84.5 73 L88 73 L85.25 75 L86.75 78 L83 76 L79.25 78 L80.75 75 L78 73 L81.5 73 Z" fill="url(#starGradient)"/>
  
  <!-- 渐变定义 -->
  <defs>
    <!-- 书签主体渐变 -->
    <linearGradient id="bookmarkGradient" x1="0%" y1="0%" x2="100%" y2="100%">
      <stop offset="0%" style="stop-color:#3B82F6;stop-opacity:1" />
      <stop offset="100%" style="stop-color:#1E40AF;stop-opacity:1" />
    </linearGradient>
    
    <!-- 星星渐变 -->
    <linearGradient id="starGradient" x1="0%" y1="0%" x2="100%" y2="100%">
      <stop offset="0%" style="stop-color:#FCD34D;stop-opacity:1" />
      <stop offset="100%" style="stop-color:#F59E0B;stop-opacity:1" />
    </linearGradient>
    
    <!-- 阴影效果 -->
    <filter id="shadow">
      <feDropShadow dx="4" dy="4" stdDeviation="6" flood-color="#00000030"/>
    </filter>
  </defs>
</svg>
